HIERARCHY
ROOT Root
{
  OFFSET 0.0 0.0 0.0
  CHANNELS 6 Xposition Yposition Zposition Zrotation Yrotation Xrotation
  JOINT Hips
  {
    OFFSET 0.0 100.0 0.0
    CHANNELS 6 Xposition Yposition Zposition Zrotation Yrotation Xrotation
    JOINT Spine1
    {
      OFFSET 5.003913 -0.037094 -0.013727
      CHANNELS 3 Zrotation Yrotation Xrotation
      JOINT Spine2
      {
        OFFSET 7.125363 -1e-06 0.0
        CHANNELS 3 Zrotation Yrotation Xrotation
        JOINT Chest
        {
          OFFSET 7.594027 1e-06 0.0
          CHANNELS 3 Zrotation Yrotation Xrotation
          JOINT Neck1
          {
            OFFSET 26.313086 -0.460272 -0.181672
            CHANNELS 3 Zrotation Yrotation Xrotation
            JOINT Neck2
            {
              OFFSET 8.045911 0.0 0.0
              CHANNELS 3 Zrotation Yrotation Xrotation
              JOINT Head
              {
                OFFSET 6.432774 0.0 0.0
                CHANNELS 3 Zrotation Yrotation Xrotation
                JOINT HeadEnd
                {
                  OFFSET 16.169773 0.06451 0.00362
                  CHANNELS 3 Zrotation Yrotation Xrotation
                }
                JOINT Jaw
                {
                  OFFSET 0.108741 3.12938 0.002639
                  CHANNELS 3 Zrotation Yrotation Xrotation
                }
                JOINT LeftEye
                {
                  OFFSET 4.45173 8.166359 3.206392
                  CHANNELS 3 Zrotation Yrotation Xrotation
                }
                JOINT RightEye
                {
                  OFFSET 4.436895 8.135758 -3.222429
                  CHANNELS 3 Zrotation Yrotation Xrotation
                }
              }
            }
          }
          JOINT LeftShoulder
          {
            OFFSET 23.218927 5.195579 1.621656
            CHANNELS 3 Zrotation Yrotation Xrotation
            JOINT LeftArm
            {
              OFFSET 15.902118 2e-06 -2e-06
              CHANNELS 3 Zrotation Yrotation Xrotation
              JOINT LeftForeArm
              {
                OFFSET 28.739307 0.0 -1e-06
                CHANNELS 3 Zrotation Yrotation Xrotation
                JOINT LeftHand
                {
                  OFFSET 27.093981 -4e-06 0.0
                  CHANNELS 3 Zrotation Yrotation Xrotation
                  JOINT LeftHandThumb1
                  {
                    OFFSET 2.276781 3.380274 0.83384
                    CHANNELS 3 Zrotation Yrotation Xrotation
                    JOINT LeftHandThumb2
                    {
                      OFFSET 4.705309 -1e-06 -1e-06
                      CHANNELS 3 Zrotation Yrotation Xrotation
                      JOINT LeftHandThumb3
                      {
                        OFFSET 2.798515 0.0 3e-06
                        CHANNELS 3 Zrotation Yrotation Xrotation
                        JOINT LeftHandThumbEnd
                        {
                          OFFSET 3.180793 4e-06 -4e-06
                          CHANNELS 3 Zrotation Yrotation Xrotation
                        }
                      }
                    }
                  }
                  JOINT LeftHandIndex1
                  {
                    OFFSET 3.247786 2.352677 0.137192
                    CHANNELS 3 Zrotation Yrotation Xrotation
                    JOINT LeftHandIndex2
                    {
                      OFFSET 6.367095 1e-06 0.0
                      CHANNELS 3 Zrotation Yrotation Xrotation
                      JOINT LeftHandIndex3
                      {
                        OFFSET 3.662364 0.0 0.0
                        CHANNELS 3 Zrotation Yrotation Xrotation
                        JOINT LeftHandIndex4
                        {
                          OFFSET 2.329242 4e-06 -4e-06
                          CHANNELS 3 Zrotation Yrotation Xrotation
                          JOINT LeftHandIndexEnd
                          {
                            OFFSET 2.767823 1e-06 0.0
                            CHANNELS 3 Zrotation Yrotation Xrotation
                          }
                        }
                      }
                    }
                  }
                  JOINT LeftHandMiddle1
                  {
                    OFFSET 3.163612 0.945023 -0.406112
                    CHANNELS 3 Zrotation Yrotation Xrotation
                    JOINT LeftHandMiddle2
                    {
                      OFFSET 6.276789 3e-06 0.0
                      CHANNELS 3 Zrotation Yrotation Xrotation
                      JOINT LeftHandMiddle3
                      {
                        OFFSET 4.35652 -1e-06 4e-06
                        CHANNELS 3 Zrotation Yrotation Xrotation
                        JOINT LeftHandMiddle4
                        {
                          OFFSET 2.996877 0.0 8e-06
                          CHANNELS 3 Zrotation Yrotation Xrotation
                          JOINT LeftHandMiddleEnd
                          {
                            OFFSET 2.323256 3e-06 -4e-06
                            CHANNELS 3 Zrotation Yrotation Xrotation
                          }
                        }
                      }
                    }
                  }
                  JOINT LeftHandRing1
                  {
                    OFFSET 2.882606 -0.309162 0.107445
                    CHANNELS 3 Zrotation Yrotation Xrotation
                    JOINT LeftHandRing2
                    {
                      OFFSET 6.033198 0.0 4e-06
                      CHANNELS 3 Zrotation Yrotation Xrotation
                      JOINT LeftHandRing3
                      {
                        OFFSET 4.350578 3e-06 0.0
                        CHANNELS 3 Zrotation Yrotation Xrotation
                        JOINT LeftHandRing4
                        {
                          OFFSET 2.651321 2e-06 -7e-06
                          CHANNELS 3 Zrotation Yrotation Xrotation
                          JOINT LeftHandRingEnd
                          {
                            OFFSET 1.937663 1e-06 -4e-06
                            CHANNELS 3 Zrotation Yrotation Xrotation
                          }
                        }
                      }
                    }
                  }
                  JOINT LeftHandPinky1
                  {
                    OFFSET 2.865315 -1.525436 0.575687
                    CHANNELS 3 Zrotation Yrotation Xrotation
                    JOINT LeftHandPinky2
                    {
                      OFFSET 5.54936 1e-06 -8e-06
                      CHANNELS 3 Zrotation Yrotation Xrotation
                      JOINT LeftHandPinky3
                      {
                        OFFSET 3.070974 0.0 -4e-06
                        CHANNELS 3 Zrotation Yrotation Xrotation
                        JOINT LeftHandPinky4
                        {
                          OFFSET 1.549672 1e-06 0.0
                          CHANNELS 3 Zrotation Yrotation Xrotation
                          JOINT LeftHandPinkyEnd
                          {
                            OFFSET 1.952123 0.0 0.0
                            CHANNELS 3 Zrotation Yrotation Xrotation
                          }
                        }
                      }
                    }
                  }
                }
              }
            }
          }
          JOINT RightShoulder
          {
            OFFSET 23.161716 5.296122 -1.380114
            CHANNELS 3 Zrotation Yrotation Xrotation
            JOINT RightArm
            {
              OFFSET -16.027195 -2e-06 1.1e-05
              CHANNELS 3 Zrotation Yrotation Xrotation
              JOINT RightForeArm
              {
                OFFSET -28.736639 4e-06 2e-06
                CHANNELS 3 Zrotation Yrotation Xrotation
                JOINT RightHand
                {
                  OFFSET -27.133619 6e-06 0.0
                  CHANNELS 3 Zrotation Yrotation Xrotation
                  JOINT RightHandThumb1
                  {
                    OFFSET -2.274328 -3.351035 -0.83067
                    CHANNELS 3 Zrotation Yrotation Xrotation
                    JOINT RightHandThumb2
                    {
                      OFFSET -4.703594 -3e-06 2e-06
                      CHANNELS 3 Zrotation Yrotation Xrotation
                      JOINT RightHandThumb3
                      {
                        OFFSET -2.794935 -4e-06 -3e-06
                        CHANNELS 3 Zrotation Yrotation Xrotation
                        JOINT RightHandThumbEnd
                        {
                          OFFSET -3.183852 4e-06 1e-06
                          CHANNELS 3 Zrotation Yrotation Xrotation
                        }
                      }
                    }
                  }
                  JOINT RightHandIndex1
                  {
                    OFFSET -3.253496 -2.33755 -0.127667
                    CHANNELS 3 Zrotation Yrotation Xrotation
                    JOINT RightHandIndex2
                    {
                      OFFSET -6.344434 0.0 0.0
                      CHANNELS 3 Zrotation Yrotation Xrotation
                      JOINT RightHandIndex3
                      {
                        OFFSET -3.654871 0.0 -8e-06
                        CHANNELS 3 Zrotation Yrotation Xrotation
                        JOINT RightHandIndex4
                        {
                          OFFSET -2.327586 -1e-06 0.0
                          CHANNELS 3 Zrotation Yrotation Xrotation
                          JOINT RightHandIndexEnd
                          {
                            OFFSET -2.770001 3e-06 8e-06
                            CHANNELS 3 Zrotation Yrotation Xrotation
                          }
                        }
                      }
                    }
                  }
                  JOINT RightHandMiddle1
                  {
                    OFFSET -3.168223 -0.944764 0.411762
                    CHANNELS 3 Zrotation Yrotation Xrotation
                    JOINT RightHandMiddle2
                    {
                      OFFSET -6.266691 -1e-06 -4e-06
                      CHANNELS 3 Zrotation Yrotation Xrotation
                      JOINT RightHandMiddle3
                      {
                        OFFSET -4.348901 0.0 0.0
                        CHANNELS 3 Zrotation Yrotation Xrotation
                        JOINT RightHandMiddle4
                        {
                          OFFSET -3.00024 2e-06 -4e-06
                          CHANNELS 3 Zrotation Yrotation Xrotation
                          JOINT RightHandMiddleEnd
                          {
                            OFFSET -2.321477 -4e-06 -4e-06
                            CHANNELS 3 Zrotation Yrotation Xrotation
                          }
                        }
                      }
                    }
                  }
                  JOINT RightHandRing1
                  {
                    OFFSET -2.885654 0.293261 -0.119232
                    CHANNELS 3 Zrotation Yrotation Xrotation
                    JOINT RightHandRing2
                    {
                      OFFSET -6.032835 -1e-06 -4e-06
                      CHANNELS 3 Zrotation Yrotation Xrotation
                      JOINT RightHandRing3
                      {
                        OFFSET -4.33881 0.0 -4e-06
                        CHANNELS 3 Zrotation Yrotation Xrotation
                        JOINT RightHandRing4
                        {
                          OFFSET -2.654903 -4e-06 -4e-06
                          CHANNELS 3 Zrotation Yrotation Xrotation
                          JOINT RightHandRingEnd
                          {
                            OFFSET -1.935122 0.0 4e-06
                            CHANNELS 3 Zrotation Yrotation Xrotation
                          }
                        }
                      }
                    }
                  }
                  JOINT RightHandPinky1
                  {
                    OFFSET -2.866241 1.503904 -0.60527
                    CHANNELS 3 Zrotation Yrotation Xrotation
                    JOINT RightHandPinky2
                    {
                      OFFSET -5.553177 -2e-06 0.0
                      CHANNELS 3 Zrotation Yrotation Xrotation
                      JOINT RightHandPinky3
                      {
                        OFFSET -3.062664 -1e-06 -4e-06
                        CHANNELS 3 Zrotation Yrotation Xrotation
                        JOINT RightHandPinky4
                        {
                          OFFSET -1.546529 2e-06 4e-06
                          CHANNELS 3 Zrotation Yrotation Xrotation
                          JOINT RightHandPinkyEnd
                          {
                            OFFSET -1.952341 0.0 -4e-06
                            CHANNELS 3 Zrotation Yrotation Xrotation
                          }
                        }
                      }
                    }
                  }
                }
              }
            }
          }
        }
      }
    }
    JOINT LeftLeg
    {
      OFFSET -8.443107 2.567604 10.043214
      CHANNELS 3 Zrotation Yrotation Xrotation
      JOINT LeftShin
      {
        OFFSET 43.229198 1e-06 -1e-06
        CHANNELS 3 Zrotation Yrotation Xrotation
        JOINT LeftFoot
        {
          OFFSET 42.298611 1e-06 1e-06
          CHANNELS 3 Zrotation Yrotation Xrotation
          JOINT LeftToeBase
          {
            OFFSET 14.165858 1e-06 0.0
            CHANNELS 3 Zrotation Yrotation Xrotation
            JOINT LeftToeEnd
            {
              OFFSET 6.7141 -0.234461 0.0
              CHANNELS 3 Zrotation Yrotation Xrotation
            }
          }
        }
      }
    }
    JOINT RightLeg
    {
      OFFSET -8.303923 2.592729 -10.047278
      CHANNELS 3 Zrotation Yrotation Xrotation
      JOINT RightShin
      {
        OFFSET -43.369682 0.0 1e-06
        CHANNELS 3 Zrotation Yrotation Xrotation
        JOINT RightFoot
        {
          OFFSET -42.260784 4e-06 2e-06
          CHANNELS 3 Zrotation Yrotation Xrotation
          JOINT RightToeBase
          {
            OFFSET -14.222245 -2e-06 -1e-06
            CHANNELS 3 Zrotation Yrotation Xrotation
            JOINT RightToeEnd
            {
              OFFSET -6.660062 0.232574 -2e-06
              CHANNELS 3 Zrotation Yrotation Xrotation
            }
          }
        }
      }
    }
  }
}
MOTION
Frames: 4
Frame Time: 0.03333333333333333
0.0 0.0 0.0 0.0 -0.0 0.0 -0.409829 100.065735 2.363349 91.226067 -0.569323 90.033356 -3.228077 -1.41977 -0.507676 -11.987606 -1.014313 0.023322 6.120618 -1.312429 -3.884535 4.128431 5.744777 1.974505 -2.706839 -0.887784 2.386819 -29.229197 -0.545698 3.667289 7e-06 0.0 0.0 -0.013062 -0.123791 -0.180117 0.531479 -0.24928 -0.048972 0.57424 0.001977 -0.306537 -22.932402 -73.654861 24.356344 -5.396224 35.935394 -71.802101 18.852079 1.308389 -0.352447 -8.866025 35.4053 -13.46958 17.636625 -26.322742 52.411194 -19.466665 -14.395602 29.410393 -1e-06 -8.774822 -1e-06 17.720594 -16.26556 5.320286 -0.609776 -1.795656 -3.889328 -4.807087 -11.04681 -2.93785 3e-06 -20.976015 1e-06 -5.019972 -25.033556 -4.031878 5e-06 -1e-06 0.0 -10.634532 -5.686972 -3.565586 10.573275 -17.922947 -3.1139 3e-06 -13.821208 2e-06 -0.501779 -31.181505 -4.027012 -12.687073 -60.350727 8.599229 -13.982713 -7.150199 -2.87504 13.77273 -8.401489 -3.218244 0.347733 -34.211555 0.771657 -0.96303 -17.733372 2.621021 1e-06 1e-06 -0.0 -17.346416 -20.095215 -4.20178 21.757557 -1.638375 3.866427 1e-06 -6.338823 1e-06 -1.697589 -22.591743 -6.194005 -2e-06 -4e-06 -2e-06 151.326965 -74.859383 32.379551 -26.269312 28.278362 -59.442852 27.633705 3.278901 0.697012 -3.999217 17.881437 -26.069046 22.182112 -20.375887 49.933308 -16.701809 -16.743525 28.476522 -1e-06 -12.6906 -2e-06 16.729074 -16.533419 1.950379 -0.105919 -1.513857 -4.275881 -5.03904 -5.612871 -2.953557 6e-06 -11.020521 -2e-06 -6.111295 -15.895329 -3.840471 1e-06 -1e-06 -2e-06 -10.283369 -5.680288 -4.341838 11.028292 -11.302402 -2.372631 -1.384267 -14.238577 -6.320121 -0.625435 -26.924187 -3.827602 -4.757182 -50.202278 -3.904086 -13.708522 -7.363476 -3.720938 18.141148 -14.052736 -3.242674 6e-06 -18.787264 -2e-06 -0.429712 -8.45604 2.555503 1e-06 -0.0 1e-06 -15.923532 -20.094482 -5.473583 30.41921 -7.190826 1.735926 3e-06 -8.162924 -0.0 -1.861902 -22.861469 -6.167943 0.0 -0.0 -1e-06 -174.886551 -1.588849 -1.480383 5.978867 -0.09741 0.164238 -79.116196 5.368017 -4.037441 -4.879127 1.60119 2.229287 -1.000001 -0.0 0.0 7.040787 -5.014369 -17.524456 6.414983 -0.000501 -0.104422 -80.07016 9.779383 -4.476927 -4.558791 0.594252 1.698324 -1.000003 -0.0 0.0 
0.0 0.0 0.0 0.0 -0.0 0.0 -0.464148 100.065323 2.241866 91.231567 -0.539391 90.078117 -3.198585 -1.390875 -0.485017 -11.990139 -0.988386 0.042209 6.111037 -1.311253 -3.85203 4.067383 5.676971 1.966219 -2.705702 -0.901296 2.370096 -29.199663 -0.590285 3.67492 5e-06 0.0 -0.0 -0.013627 -0.113612 -0.167513 0.540511 -0.232311 -0.038082 0.579945 0.005412 -0.291294 -22.864933 -73.659065 24.236979 -5.359283 36.016102 -71.572876 18.574076 1.326689 -0.341177 -8.772569 35.103966 -12.942929 17.636631 -26.322729 52.411179 -19.466658 -14.3956 29.410385 -1e-06 -8.774822 -2e-06 17.659378 -16.243282 5.345211 -0.609778 -1.795653 -3.889327 -4.807088 -11.046813 -2.937848 5e-06 -20.976019 1e-06 -5.019969 -25.03356 -4.03188 6e-06 0.0 -0.0 -10.634535 -5.686971 -3.565586 10.573276 -17.922947 -3.113899 3e-06 -13.821208 1e-06 -0.501778 -31.181505 -4.027014 -12.660984 -60.367611 8.595182 -13.982715 -7.150198 -2.875039 13.772731 -8.401492 -3.218241 0.347732 -34.211555 0.771656 -0.963028 -17.73337 2.62102 -1e-06 1e-06 -0.0 -17.346416 -20.095217 -4.20178 21.757561 -1.638374 3.866428 1e-06 -6.338824 0.0 -1.697589 -22.591747 -6.194005 -1e-06 -4e-06 -2e-06 151.748459 -74.783257 31.871365 -26.352587 28.375397 -58.987247 27.503073 3.193581 0.655348 -3.791539 17.760637 -25.843649 22.182114 -20.375898 49.933315 -16.701811 -16.74353 28.476528 -1e-06 -12.690601 0.0 16.72607 -16.580269 1.962792 -0.105921 -1.513854 -4.275882 -5.03904 -5.612872 -2.953557 6e-06 -11.020523 -0.0 -6.111298 -15.89533 -3.840469 -0.0 0.0 -1e-06 -10.283373 -5.680286 -4.341837 11.028294 -11.302403 -2.372631 -1.38427 -14.238579 -6.320119 -0.625438 -26.924179 -3.827598 -4.732018 -50.250355 -3.971349 -13.708524 -7.363476 -3.720941 18.141146 -14.052738 -3.242672 4e-06 -18.787268 -1e-06 -0.429713 -8.456043 2.555506 0.0 -0.0 -0.0 -15.923538 -20.094482 -5.473583 30.41921 -7.190826 1.735924 3e-06 -8.162925 1e-06 -1.861905 -22.861471 -6.167939 -1e-06 -0.0 -1e-06 -174.920349 -1.629778 -1.37552 5.964999 -0.096413 0.155532 -79.090836 5.326062 -4.056212 -4.876455 1.614414 2.229677 -0.999999 -0.0 -0.0 7.017085 -4.981831 -17.578918 6.41239 0.003582 -0.103029 -80.097496 9.768942 -4.402776 -4.600662 0.597396 1.694947 -1.000002 1e-06 -0.0 
0.0 0.0 0.0 0.0 -0.0 0.0 -0.515739 100.073311 2.132719 91.239243 -0.527921 90.152573 -3.176463 -1.367571 -0.483176 -12.008605 -0.96821 0.061698 6.100473 -1.307147 -3.812679 4.004173 5.619643 1.940346 -2.697904 -0.908152 2.401965 -29.22135 -0.668836 3.694458 4e-06 0.0 0.0 -0.012056 -0.10282 -0.154976 0.551896 -0.21419 -0.026616 0.586432 0.009029 -0.277274 -22.832695 -73.648552 24.147566 -5.325254 36.121815 -71.325089 18.246353 1.306388 -0.324162 -8.619148 34.761433 -12.23445 17.636639 -26.322741 52.411213 -19.466669 -14.3956 29.410398 1e-06 -8.774825 -3e-06 17.569721 -16.211187 5.383898 -0.609775 -1.795653 -3.889329 -4.807091 -11.046809 -2.937853 4e-06 -20.976021 -0.0 -5.019974 -25.033562 -4.031882 8e-06 -1e-06 1e-06 -10.634538 -5.686972 -3.565588 10.573276 -17.922955 -3.113901 2e-06 -13.821212 1e-06 -0.501776 -31.181511 -4.027017 -12.628383 -60.356701 8.593421 -13.982718 -7.150196 -2.875044 13.772733 -8.401497 -3.218241 0.347733 -34.211559 0.771656 -0.96303 -17.733376 2.621021 -2e-06 1e-06 -1e-06 -17.346424 -20.095217 -4.201783 21.757561 -1.638373 3.866428 1e-06 -6.338824 0.0 -1.697591 -22.591751 -6.194007 -0.0 -4e-06 -2e-06 152.285797 -74.69207 31.295595 -26.496807 28.451571 -58.539906 27.262814 3.091799 0.620484 -3.560664 17.631111 -25.725826 22.182114 -20.375895 49.933327 -16.701817 -16.74353 28.476534 -1e-06 -12.690601 -3e-06 16.761528 -16.642513 1.968772 -0.10592 -1.513857 -4.275881 -5.039041 -5.612871 -2.953557 5e-06 -11.020525 -2e-06 -6.1113 -15.895334 -3.840472 1e-06 0.0 -1e-06 -10.283371 -5.680289 -4.341839 11.028293 -11.302404 -2.372632 -1.384268 -14.238581 -6.320124 -0.625437 -26.924187 -3.827601 -4.760035 -50.345699 -3.943672 -13.708526 -7.363478 -3.72094 18.141148 -14.052737 -3.242674 6e-06 -18.78727 -3e-06 -0.42971 -8.456042 2.555502 -1e-06 -0.0 -1e-06 -15.923536 -20.094486 -5.473586 30.419218 -7.190824 1.735926 2e-06 -8.162925 -1e-06 -1.861903 -22.861469 -6.167945 -1e-06 -2e-06 -1e-06 -174.989212 -1.674375 -1.222696 5.9854 -0.094088 0.132432 -79.039696 5.263281 -4.057302 -4.856438 1.617688 2.227774 -0.999998 -0.0 -0.0 6.98632 -4.953123 -17.688971 6.40762 0.005689 -0.09887 -80.087593 9.799368 -4.365029 -4.635899 0.60384 1.691774 -1.000002 -0.0 0.0 
0.0 0.0 0.0 0.0 -0.0 0.0 -0.566263 100.087532 2.040411 91.261482 -0.523085 90.237862 -3.151947 -1.35998 -0.506129 -12.030767 -0.966409 0.063716 6.085205 -1.305903 -3.766492 3.937866 5.597208 1.898937 -2.695137 -0.905509 2.463317 -29.286926 -0.726795 3.758617 7e-06 -0.0 0.0 -0.012213 -0.097001 -0.14879 0.552562 -0.201278 -0.022043 0.584444 0.007775 -0.269829 -22.862982 -73.590973 24.157459 -5.371276 36.223133 -71.15213 17.916105 1.248302 -0.318497 -8.457065 34.419945 -11.532388 17.636625 -26.322741 52.411209 -19.466665 -14.395604 29.410395 -0.0 -8.774821 -2e-06 17.499397 -16.178139 5.421284 -0.609777 -1.795654 -3.889328 -4.807089 -11.046809 -2.93785 3e-06 -20.976019 1e-06 -5.01997 -25.03356 -4.031881 6e-06 0.0 0.0 -10.634535 -5.686971 -3.565588 10.573275 -17.922951 -3.113901 2e-06 -13.821209 1e-06 -0.50178 -31.181505 -4.027015 -12.593102 -60.328781 8.603608 -13.982718 -7.150197 -2.875043 13.772733 -8.401493 -3.218242 0.347733 -34.211555 0.771657 -0.96303 -17.73337 2.62102 -0.0 1e-06 -1e-06 -17.34642 -20.095217 -4.201783 21.757561 -1.638373 3.866428 1e-06 -6.338825 0.0 -1.69759 -22.591747 -6.194007 -1e-06 -4e-06 -2e-06 153.002197 -74.602882 30.582001 -26.692228 28.490337 -58.135143 26.941734 2.967642 0.597387 -3.341261 17.491535 -25.588924 22.182121 -20.375898 49.933315 -16.701811 -16.74353 28.476526 -2e-06 -12.690603 -2e-06 16.814873 -16.71125 1.981127 -0.105919 -1.513855 -4.275881 -5.039041 -5.612872 -2.953557 4e-06 -11.020526 -1e-06 -6.111298 -15.895334 -3.840467 1e-06 -1e-06 -1e-06 -10.283369 -5.680289 -4.341837 11.028295 -11.302404 -2.372629 -1.38427 -14.238583 -6.320122 -0.62544 -26.924189 -3.827597 -4.81439 -50.452499 -3.856578 -13.708525 -7.363476 -3.720937 18.141148 -14.052739 -3.242672 6e-06 -18.78727 -1e-06 -0.429711 -8.456044 2.555504 0.0 0.0 -0.0 -15.923534 -20.094484 -5.47358 30.419214 -7.190826 1.735927 2e-06 -8.162927 -1e-06 -1.861906 -22.861479 -6.167942 -0.0 -3e-06 -4e-06 -175.067154 -1.702392 -1.053661 6.017706 -0.091767 0.10939 -78.954704 5.193443 -4.075619 -4.83007 1.609594 2.226408 -0.999997 -0.0 -0.0 6.954749 -4.931948 -17.812202 6.415561 0.004941 -0.099049 -80.066902 9.837676 -4.348913 -4.639656 0.609573 1.689329 -1.000003 0.0 0.0 
